<svg fill="#FFFFFF" xmlns="http://www.w3.org/2000/svg" xmlns:xlink="http://www.w3.org/1999/xlink" viewBox="0 0 100 100" version="1.1" x="0px" y="0px"><title>Underground 5.2</title><desc>Created with Sketch.</desc><g stroke="none" stroke-width="1" fill="none" fill-rule="evenodd"><g fill="#FFFFFF"><path d="M33.4341876,57.0527084 C36.177667,63.488529 42.5619783,68 50,68 C57.4339592,68 63.8153587,63.4934558 66.5613138,57.063252 C66.7103046,56.7143603 66.6138817,56.9370687 66.6138817,56.9370687 C66.8137447,56.4195399 66.5366205,56 65.9778494,56 L59.7298707,56 C59.448864,56 59.0959562,56.1777527 58.9346814,56.4031112 C58.9346814,56.4031112 58.7187168,56.7221416 58.4370485,57.0584648 C56.4192306,59.4678205 53.3885451,61 50,61 C46.6445669,61 43.6400338,59.4976184 41.6223902,57.1288445 C41.3180562,56.7715473 41.0704474,56.4083009 41.0704474,56.4083009 C40.9094472,56.1828026 40.5552108,56 40.2701234,56 L34.0221498,56 C33.4710162,56 33.1767264,56.4150211 33.3862395,56.9391458 C33.3862395,56.9391458 33.2869109,56.7072178 33.4341876,57.0527084 Z"></path><path d="M33.7399019,33.0527084 C36.4830245,39.488529 42.8665053,44 50.3035595,44 C57.7365518,44 64.1171212,39.4934558 66.8627192,33.063252 C67.0116906,32.7143603 66.9152802,32.9370687 66.9152802,32.9370687 C67.1151173,32.4195399 66.8380291,32 66.2793307,32 L60.0321647,32 C59.7511945,32 59.3983326,32.1777527 59.2370787,32.4031112 C59.2370787,32.4031112 59.0211423,32.7221416 58.7395106,33.0584648 C56.7219551,35.4678205 53.6916639,37 50.3035595,37 C46.9485629,37 43.9444206,35.4976184 41.9270394,33.1288445 C41.622745,32.7715473 41.3751684,32.4083009 41.3751684,32.4083009 C41.2141891,32.1828026 40.8599988,32 40.5749485,32 L34.3277876,32 C33.7767257,32 33.4824741,32.4150211 33.69196,32.9391458 C33.69196,32.9391458 33.5926443,32.7072178 33.7399019,33.0527084 Z" transform="translate(50.155003, 38.000000) rotate(180.000000) translate(-50.155003, -38.000000) "></path><rect x="29" y="46" width="42" height="8" rx="1"></rect></g></g></svg>