<?xml version="1.0" encoding="utf-8"?>
<!-- Generator: Adobe Illustrator 15.0.0, SVG Export Plug-In . SVG Version: 6.00 Build 0)  -->
<!DOCTYPE svg PUBLIC "-//W3C//DTD SVG 1.1//EN" "http://www.w3.org/Graphics/SVG/1.1/DTD/svg11.dtd">
<svg version="1.1" id="Layer_1" xmlns="http://www.w3.org/2000/svg" xmlns:xlink="http://www.w3.org/1999/xlink" x="0px" y="0px"
	 width="1200px" height="1200px" viewBox="0 0 1200 1200" enable-background="new 0 0 1200 1200" xml:space="preserve">
<path fill="#FFFFFF" d="M174.8,584.8c0-9.6,3.2-18,10-24.8c6.8-6.4,15.2-9.6,24-9.6h81.6c9.2,0,16.8,3.199,23.2,10
	c6,6.8,9.2,14.8,9.2,24.399c0,9.601-2.8,17.601-8.8,24.4s-14,10-23.2,10h-81.6c-9.2,0-17.2-3.2-24-10
	C178.4,602.4,174.8,594.4,174.8,584.8z M289.2,862c0-9.2,3.2-17.2,9.2-24.4l58.8-57.199c6-6.4,14-9.2,23.6-9.2
	c9.601,0,17.601,3.2,24,9.2c6.4,6,9.601,13.6,9.601,22.8c0,9.6-3.2,18.399-9.601,25.6L348,885.6c-16.4,12.801-32.8,12.801-49.2,0
	C292.4,879.2,289.2,871.2,289.2,862z M289.2,308.4c0-9.2,3.2-17.2,9.2-24.4c8-6.8,16.4-10,25.6-10c8.8,0,16.8,3.2,23.6,9.6
	l57.2,58.8c6.4,6,9.601,14,9.601,23.6s-3.2,17.6-9.601,24c-6.399,6.4-14.399,9.6-24,9.6c-9.6,0-17.6-3.199-23.6-9.6l-58.4-57.2
	C292.4,326.4,289.2,318,289.2,308.4z M391.2,584.8c0-37.2,9.2-72,28-104s44-57.6,76.399-76.399c32.4-18.8,66.801-28,104-28
	c28,0,54.801,5.6,80.801,16.8c25.6,11.2,48,26,66.399,44.8c18.8,18.8,33.601,40.8,44.4,66.4C802,530,807.6,557.2,807.6,585.2
	c0,37.6-9.199,72.399-28,104.399c-18.8,32-44,57.2-76,76c-32,18.801-66.8,28-104.399,28c-37.601,0-72.4-9.199-104.4-28
	c-32-18.8-57.2-44-76-76C400.8,657.2,391.2,622.4,391.2,584.8z M459.2,584.8c0,39.2,13.6,72.4,41.2,100
	C527.6,712.4,560.8,726.4,600,726.4s72.4-14,100-41.601c27.6-27.6,41.6-60.8,41.6-100c0-38.399-14-71.2-41.6-98.8
	c-27.6-27.2-60.8-40.8-100-40.8c-38.8,0-72,13.6-99.2,40.8C472.8,513.6,459.2,546.4,459.2,584.8z M565.6,896c0-9.6,3.2-17.6,10-24
	c6.801-6.4,14.801-9.6,24-9.6c9.601,0,18,3.199,24.4,9.6s9.6,14.4,9.6,24v79.6c0,9.601-3.199,18-10,24.801c-6.8,6.8-14.8,10-24,10
	c-9.199,0-17.6-3.2-24-10c-6.8-6.801-10-15.2-10-24.801V896L565.6,896z M565.6,276v-81.6c0-9.2,3.2-17.2,10-24
	C582.4,163.6,590.4,160,600,160s17.2,3.2,24,10s10,14.8,10,24v82c0,9.2-3.2,16.8-10,23.2c-6.8,6.4-14.8,9.2-24,9.2s-17.6-3.2-24-9.2
	S565.6,285.2,565.6,276z M786.4,803.2c0-9.2,3.199-16.8,9.199-22.4c6-6.399,13.601-9.2,22.4-9.2c9.6,0,17.6,3.2,24,9.2l58.4,57.2
	c6.399,6.8,9.6,15.2,9.6,24.4c0,9.199-3.2,17.199-9.6,23.6c-16,12.4-32,12.4-48,0L795.6,829.2C789.6,822,786.4,813.6,786.4,803.2z
	 M786.4,366.4c0-10,3.199-18,9.199-23.6L852.4,284c6.8-6.4,14.8-9.6,23.6-9.6c9.6,0,17.6,3.2,24,10c6.8,6.8,10,14.8,10,24
	c0,10-3.2,18.4-9.6,24.8L842,390.4c-7.2,6.4-15.2,9.6-24,9.6c-9.2,0-16.4-3.2-22.4-9.6S786.4,376,786.4,366.4z M876.8,584.8
	c0-9.6,3.2-17.6,9.601-24.8c6.399-6.4,14-9.6,22.8-9.6H990c9.2,0,17.2,3.6,24,10.399s10.4,14.8,10.4,24s-3.601,17.2-10.4,24
	s-14.8,10-24,10h-80.8c-9.2,0-17.2-3.2-23.2-10S876.8,594.4,876.8,584.8z"/>
</svg>
