<?xml version="1.0" encoding="utf-8"?>
<!-- Generator: Adobe Illustrator 15.0.0, SVG Export Plug-In . SVG Version: 6.00 Build 0)  -->
<!DOCTYPE svg PUBLIC "-//W3C//DTD SVG 1.1//EN" "http://www.w3.org/Graphics/SVG/1.1/DTD/svg11.dtd">
<svg version="1.1" id="Layer_1" xmlns="http://www.w3.org/2000/svg" xmlns:xlink="http://www.w3.org/1999/xlink" x="0px" y="0px"
	 width="1200px" height="1200px" viewBox="0 0 1200 1200" enable-background="new 0 0 1200 1200" xml:space="preserve">
<path fill="#FFFFFF" d="M316.4,579.2c0-38.4,7.6-74.8,22.399-110s35.2-65.2,60.4-90.4c25.2-25.2,55.6-45.6,90.8-60.8
	s72-22.8,110-22.8h45.6c6.4,1.6,9.2,5.6,9.2,11.2l2,35.2c1.601,50.8,19.601,94,54.8,129.6C746.8,506.8,789.2,526,839.2,528l32.8,2.8
	c6.4,0,9.6,3.2,9.6,9.2v39.2c0.4,51.2-12,98.8-37.199,142.399C819.2,765.2,785.2,799.6,741.6,825.2c-43.199,25.199-90.8,38-142,38
	c-38.8,0-76-7.601-111.199-22.4C453.2,826,423.2,805.6,398,780.4c-25.2-25.2-45.2-55.601-60-90.4C324,654.8,316.4,618,316.4,579.2z
	 M389.6,579.2c0,30.399,6,59.2,18,86.399c12,26.801,28,49.601,47.601,68c19.6,18.4,42,32.801,67.6,43.2c25.2,10.8,51.2,16,77.601,16
	c23.199,0,46.8-4.399,70.399-13.6c23.601-9.2,45.601-22,66-38.4c20.4-16.399,37.601-37.2,52.4-62.8s24-53.2,28.399-83.6
	C752.4,580.8,700,552.8,660.8,510.4c-39.2-42.4-62-92-68-149.601C554.4,363.2,520,374.8,488.4,396c-31.2,21.2-55.601,48-72.801,80.8
	C398.4,509.6,389.6,543.6,389.6,579.2z"/>
</svg>
