<?xml version="1.0" encoding="utf-8"?>
<!-- Generator: Adobe Illustrator 15.0.0, SVG Export Plug-In . SVG Version: 6.00 Build 0)  -->
<!DOCTYPE svg PUBLIC "-//W3C//DTD SVG 1.1//EN" "http://www.w3.org/Graphics/SVG/1.1/DTD/svg11.dtd">
<svg version="1.1" id="Layer_1" xmlns="http://www.w3.org/2000/svg" xmlns:xlink="http://www.w3.org/1999/xlink" x="0px" y="0px"
	 width="1200px" height="1200px" viewBox="0 0 1200 1200" enable-background="new 0 0 1200 1200" xml:space="preserve">
<path fill="#FFFFFF" d="M123.6,537.2c0,10.8,3.6,19.6,11.2,26.8c7.6,7.2,17.2,10.4,28.8,10.4h67.6c10.8,0,20-3.601,27.6-10.801
	c7.6-7.199,11.6-16,11.6-26.399c0-11.601-3.6-21.2-11.2-28.4c-7.6-7.2-16.8-11.2-27.6-11.2h-68c-11.6,0-21.2,3.601-28.8,11.2
	C127.2,515.6,123.6,525.2,123.6,537.2z M194.4,784.4c0,38.8,14,72.399,42.4,100.8C265.2,913.6,298.4,927.6,337.2,927.6H611.6
	c38.801,0,72-14,99.601-42c27.6-28,41.6-61.6,41.6-101.199c0-19.2-2.8-35.601-8.399-49.2C777.6,714,804,685.6,823.2,650.4
	c19.2-35.2,29.2-73.2,29.2-113.601c0-32.399-6.4-63.6-19.2-93.2c-12.8-29.6-30-55.2-51.2-76.399c-21.2-21.2-46.8-38.4-76.4-51.2
	c-29.6-12.8-60.399-19.2-92.8-19.2c-43.6,0-84,10.8-120.8,32.4s-66,50.8-87.2,87.2c-21.2,36.8-31.6,76.8-31.6,120.399V550.4
	c-40,22.8-66.4,56-79.2,99.6c-30.4,9.601-54.4,26.4-72.4,50.8C203.6,725.2,194.4,753.2,194.4,784.4z M256.8,218
	c0,11.2,3.6,20.4,10.4,26.8l64.399,67.6c18.801,14.4,37.601,14.4,56.4,0c7.6-7.6,11.2-16.8,11.2-28c0-10.8-3.601-20-11.2-28l-66-66
	c-8.4-7.6-18-11.6-28-11.6c-11.2,0-20.4,3.6-27.2,11.2C260,197.6,256.8,206.8,256.8,218z M273.6,784.4c0-16.801,5.2-31.2,16-43.2
	c10.8-12,24.4-18.8,40.8-20.4l24.8-3.2c5.2,0,8-3.199,8-9.199l3.6-22.4c2.8-23.2,12.4-42.4,29.2-57.6
	c16.8-15.601,36.4-23.2,59.2-23.2c23.2,0,43.6,7.6,60.399,23.2c17.2,15.6,27.2,34.8,30,57.6l3.2,26c2.4,6,5.601,9.2,9.601,9.2h52.8
	c17.2,0,32,6.399,44.8,18.8s18.8,27.2,18.8,44.8c0,18-6.399,33.2-18.8,46S628.4,850,611.2,850h-274c-18,0-33.2-6.4-45.2-19.2
	C279.6,818,273.6,802.4,273.6,784.4z M450.4,528.8c2.8-43.6,19.6-80.399,50.8-110.399C532,388.8,569.6,373.6,612.8,373.6
	c44.4,0,82.4,16,113.601,47.6c31.199,31.6,46.8,70.399,46.8,115.6c0,28-6.8,54-20.4,78c-13.6,24-32,43.2-55.2,58
	c-23.6-19.6-50.8-29.2-81.199-29.2C604.8,608.4,584,580.8,554.8,560s-62.399-31.2-99.2-31.2H450.4L450.4,528.8z M574,178.8
	c0,10.8,4,20.4,11.6,28c7.601,7.6,16.801,11.6,27.601,11.6c11.2,0,20.399-4,28-11.6c7.6-7.6,11.6-16.8,11.6-28V85.2
	c0-10.4-4-19.2-11.6-26.4c-7.601-7.2-16.8-10.8-28-10.8c-10.8,0-20,3.6-27.601,10.8C578,66,574,74.8,574,85.2V178.8L574,178.8z
	 M826.8,788c0,10.8,3.601,20,10.8,28l65.601,64.8c16.8,16.8,35.6,16.8,56.399,0c7.2-6.8,10.4-15.6,10.4-27.2
	c0-10.8-3.6-19.6-10.4-26.8L892,760c-7.2-6.8-16.4-10-27.2-10c-11.2,0-20,3.6-27.2,10.8C830.4,768,826.8,777.2,826.8,788z
	 M826.8,283.6c0,11.2,3.601,20.8,10.8,28.8c7.2,7.2,16.4,10.8,27.2,10.8s20-3.6,27.2-10.8l67.6-67.6c7.2-6.8,10.4-15.6,10.4-26.8
	s-4-20.4-11.6-27.6c-7.601-7.2-16.801-11.2-28-11.2c-10.4,0-19.601,4-27.2,11.6L837.6,256C830.4,263.2,826.8,272.4,826.8,283.6z
	 M930,537.2c0,10.8,3.6,19.6,11.2,26.8c7.6,7.2,17.2,10.4,28.8,10.4h67.6c10.801,0,20-3.601,27.601-10.801
	c7.6-7.199,11.6-16,11.6-26.399c0-11.601-3.6-21.2-11.2-28.4c-7.6-7.2-16.8-11.2-27.6-11.2h-67.6c-11.601,0-21.2,3.601-28.801,11.2
	C934,515.6,930,525.2,930,537.2z"/>
</svg>
