<?xml version="1.0" encoding="utf-8"?>
<!-- Generator: Adobe Illustrator 15.0.0, SVG Export Plug-In . SVG Version: 6.00 Build 0)  -->
<!DOCTYPE svg PUBLIC "-//W3C//DTD SVG 1.1//EN" "http://www.w3.org/Graphics/SVG/1.1/DTD/svg11.dtd">
<svg version="1.1" id="Layer_1" xmlns="http://www.w3.org/2000/svg" xmlns:xlink="http://www.w3.org/1999/xlink" x="0px" y="0px"
	 width="1200px" height="1200px" viewBox="0 0 1200 1200" enable-background="new 0 0 1200 1200" xml:space="preserve">
<path fill="#FFFFFF" d="M172,675.6c0,35.601,8.8,68.801,26.4,99.2c17.6,30.4,41.2,54.4,71.6,72c30.4,17.601,63.2,26.8,99.2,26.8
	H801.6c35.601,0,68.801-8.8,99.2-26.8c30.4-18,54.4-42,72-72c17.601-30.399,26.8-63.6,26.8-99.2c0-25.6-5.6-52-16.8-80
	c30.4-37.199,45.2-81.199,45.2-132c0-38-9.2-73.2-27.6-105.2c-18.4-32-44-57.6-76-76.4s-67.2-28-105.2-28
	c-59.601,0-111.2,23.2-154.8,69.6c-30.4-17.2-66.4-26-107.601-26c-56.399,0-106,17.2-149.2,52c-43.199,34.8-70.8,79.2-83.199,134
	c-44.8,10-81.2,32.801-109.601,68.801C186.4,588.4,172,629.6,172,675.6z M240.4,675.6c0-33.199,11.2-62,33.2-86.399
	c22.4-24.4,50.4-38.4,84-42.4l27.2-1.2l2.8-28.8C393.2,473.6,412,437.2,444,408.4c32-29.2,69.6-43.601,112.4-43.601
	c43.6,0,82,14.8,114.399,44C703.2,438,721.6,474,726,517.2l4,30h71.2c35.2,0,65.6,12.8,91.2,38C918,610.4,930.8,640.8,930.8,675.6
	c0,36-12.8,66.801-38,92.801s-56,38.8-91.2,38.8H369.2c-34.8,0-64.8-12.8-90.4-38.8C253.2,742,240.4,711.2,240.4,675.6z
	 M721.6,362.4c27.601-26.4,60-39.6,97.601-39.6c39.6,0,73.2,13.6,100.8,41.2c27.6,27.2,41.6,60.8,41.6,100.4
	c0,24.8-6.8,49.199-20.8,73.6c-38.399-38.8-84.8-58-139.6-58h-12.4C778,435.6,755.6,396.4,721.6,362.4z"/>
</svg>
