<?xml version="1.0" encoding="utf-8"?>
<!-- Generator: Adobe Illustrator 15.0.0, SVG Export Plug-In . SVG Version: 6.00 Build 0)  -->
<!DOCTYPE svg PUBLIC "-//W3C//DTD SVG 1.1//EN" "http://www.w3.org/Graphics/SVG/1.1/DTD/svg11.dtd">
<svg version="1.1" id="Layer_1" xmlns="http://www.w3.org/2000/svg" xmlns:xlink="http://www.w3.org/1999/xlink" x="0px" y="0px"
	 width="1200px" height="1200px" viewBox="0 0 1200 1200" enable-background="new 0 0 1200 1200" xml:space="preserve">
<path fill="#FFFFFF" d="M184.4,675.2c0-46,14.4-86.8,43.2-122.8c28.8-36,65.2-59.2,109.6-69.2C349.6,428.4,378,383.6,421.6,348.4
	c43.601-35.2,94-52.8,150.4-52.8c55.2,0,104.4,17.2,147.6,51.2c43.2,34,71.2,78,84,131.601h13.2c36,0,69.2,8.8,99.601,26
	C946.8,521.6,971.2,545.6,988.8,576c17.601,30.4,26.8,63.2,26.8,99.2c0,35.2-8.399,68-25.199,98c-16.801,30-40,54-69.2,72
	S859.6,872.8,824.8,874H376.4c-53.601-2.4-98.8-22.8-136-61.2C203.2,774.8,184.4,728.8,184.4,675.2z M252.8,675.2
	c0,34.8,12,64.8,36,90.399c24,25.601,53.2,39.2,87.601,41.2H824c34.4-1.6,63.6-15.6,87.6-41.2C936,740,948,709.6,948,675.2
	c0-35.2-13.2-65.2-39.2-90.8C882.8,558.8,852,546,816,546h-64c-4.4,0-6.8-2.4-6.8-7.2l-2.8-22.8c-4.4-43.2-23.2-79.6-56-108.8
	c-32.801-29.2-70.801-44-114.4-44s-82,14.8-114,44c-32.4,29.2-50.8,65.6-54.8,108.8l-3.2,22.8c0,4.8-2.8,7.2-8,7.2h-21.2
	c-33.6,4-61.6,18.4-84,42.8C264.4,613.2,252.8,642,252.8,675.2z"/>
</svg>
