<?xml version="1.0" encoding="utf-8"?>
<!-- Generator: Adobe Illustrator 15.0.0, SVG Export Plug-In . SVG Version: 6.00 Build 0)  -->
<!DOCTYPE svg PUBLIC "-//W3C//DTD SVG 1.1//EN" "http://www.w3.org/Graphics/SVG/1.1/DTD/svg11.dtd">
<svg version="1.1" id="Layer_1" xmlns="http://www.w3.org/2000/svg" xmlns:xlink="http://www.w3.org/1999/xlink" x="0px" y="0px"
	 width="1200px" height="1200px" viewBox="0 0 1200 1200" enable-background="new 0 0 1200 1200" xml:space="preserve">
<path fill="#FFFFFF" d="M155.6,704c0-39.6,12.4-75.2,37.2-106c24.8-30.8,56.4-50.8,95.2-59.6c10.4-46.801,34-85.601,71.2-115.2
	c37.2-30,80-44.8,128.8-44.8c47.2,0,89.6,14.4,126.4,43.6c37.199,29.2,61.199,66.4,72,112h10.8c47.2,0,87.2,16.4,120.399,49.6
	c33.2,33.2,50,73.2,50,120c0,47.2-16.8,87.2-50,120.4C784.4,857.2,744.4,874,697.2,874H326.4c-23.2,0-45.2-4.4-66-13.6
	c-20.8-9.2-39.6-20.4-54.8-35.601c-15.2-15.2-27.2-33.6-36.4-54.399C160,749.6,155.6,726.8,155.6,704z M213.6,704
	c0,30.4,11.2,56.8,32.8,78.4c21.6,21.6,48.4,32.8,79.6,32.8h371.2c30.8,0,57.6-10.8,79.6-32.8s33.2-48,33.2-78.4
	s-10.8-56.8-33.2-78.4c-22-21.6-48.399-32.8-79.6-32.8H641.6c-4,0-6-2-6-6l-2.8-19.6c-4-37.6-20-69.2-47.6-94
	c-27.601-24.8-60.4-37.2-98-37.2c-37.601,0-70.4,12.4-98.4,37.6c-28,24.801-43.6,56.4-47.2,93.601l-2.8,16.8c0,4-2,6-6.399,6
	l-18,2.8c-28.8,2.4-52.8,14.4-72.4,35.601C223.6,649.6,213.6,674.8,213.6,704z M567.6,355.2c-4,3.6-3.199,6.4,2.801,8.4
	c17.199,7.6,31.6,14.8,43.199,22c4.4,1.2,7.601,0.8,8.801-1.2C646.8,361.6,674.8,350,707.2,350c32.399,0,60,10.8,84,32.4
	c23.6,21.6,36.8,48.4,39.6,80L834.4,488h56.8c26,0,48.399,9.2,67.2,28c18.8,18.8,28,40.8,28,66.4c0,24-8.4,44.8-24.801,62.8
	c-16.399,18-36.8,28-61.199,30.8c-4,0-6,2-6,6.4V727.6c0,4.4,2,6.4,6,6.4c40.399-2.4,74.399-18.4,102-47.6
	c27.6-29.2,41.6-64,41.6-104c0-42.4-14.8-78.4-44.8-108c-30-30-66-44.801-108-44.801h-6c-10.4-40-32.4-72.8-66-98.8
	c-33.2-26-70.8-38.8-112-38.8C651.2,291.6,604.4,312.8,567.6,355.2z"/>
</svg>
