<?xml version="1.0" encoding="utf-8"?>
<!-- Generator: Adobe Illustrator 15.0.0, SVG Export Plug-In . SVG Version: 6.00 Build 0)  -->
<!DOCTYPE svg PUBLIC "-//W3C//DTD SVG 1.1//EN" "http://www.w3.org/Graphics/SVG/1.1/DTD/svg11.dtd">
<svg version="1.1" id="Layer_1" xmlns="http://www.w3.org/2000/svg" xmlns:xlink="http://www.w3.org/1999/xlink" x="0px" y="0px"
	 width="1200px" height="1200px" viewBox="0 0 1200 1200" enable-background="new 0 0 1200 1200" xml:space="preserve">
<path fill="#FFFFFF" d="M62.4,675.2c0,53.2,18.4,98.8,55.6,137.2C155.2,850.8,200.4,870.8,254,873.6c4.4,0,6.8-2.399,6.8-6.8v-53.6
	c0-4.8-2.4-7.2-6.8-7.2c-34-1.6-62.8-15.2-86.8-40.8c-24-25.601-35.6-55.601-35.6-90c0-33.601,11.2-62.4,33.6-86.8
	c22.4-24.4,50.4-38.4,84-42.4l20-1.6c5.2,0,8-2.4,8-7.2l2.4-21.2c4.4-43.2,22.4-79.6,54.8-108.4C366.8,378.4,404.8,364,448.8,364
	c43.601,0,82,14.4,114.4,43.6C595.6,436.8,614,472.8,618,516l2.8,22.8c0,4.8,2.4,7.2,7.2,7.2h66.8c35.2,0,65.2,12.8,90.8,38.4
	C811.2,610,824,640,824,675.2c0,34-12,63.6-36,88.8s-52.8,39.2-86.4,42c-4.399,0-6.8,2.4-6.8,7.2v53.6c0,4.4,2.4,6.8,6.8,6.8
	c35.2-0.8,66.801-10.399,96-28.8c29.2-18.399,52-42,68.4-72c16.8-30,24.8-62.399,24.8-97.6c0-28.4-5.6-54.8-16.399-78.4
	C904.8,559.2,919.6,515.6,919.6,465.6c0-28.399-5.6-55.6-16.399-81.6s-26-48-44.8-66.8C840,298.4,817.6,283.6,792,272.8
	c-26-11.2-53.2-16.4-81.6-16.4c-60.4,0-111.2,22-152.4,66.4c-31.6-17.2-68-25.6-109.2-25.6c-56.399,0-106.399,17.6-150,52.4
	c-43.6,34.8-70.8,79.6-82.8,134c-44.8,10.4-82,33.2-110.8,68.801C76.8,588,62.4,629.2,62.4,675.2z M278.8,943.2
	c0,7.2,2,14.399,6.4,21.2c4.4,7.199,10.4,11.6,18,14.399c7.6,2.8,16,2,24.399-2.399c8.801-4.4,14.4-11.601,17.601-22l10-42
	c2.8-8.4,2-16.4-2.8-24.801c-4.801-8.399-11.601-14-20.4-16.8c-10-2.399-18.8-1.2-26.8,3.2s-12.8,12-14.8,21.2l-11.2,39.6
	C279.2,936.8,278.8,939.6,278.8,943.2z M331.2,754.4c0,15.199,8.399,25.6,25.6,31.6c8.8,3.2,17.2,2.4,25.601-2
	c8.399-4.4,13.6-11.6,16.399-21.2l9.601-41.2c2.8-8.399,2-16.399-2.801-24.8C401.2,688.4,394.4,682.8,385.2,680
	c-9.601-2.4-18.8-1.6-26.8,3.2S345.6,694.8,343.6,704l-12,40.8C331.6,748,331.2,751.2,331.2,754.4z M380,1070c0,6.4,2.4,13.2,6.8,20
	c4.4,6.8,11.2,11.6,19.601,14.4c0.399,0,1.6,0,4,0.399c2.399,0.4,4.399,0.4,6,0.4c5.6,0,10.399-0.8,14.8-2.8
	c7.6-3.2,13.2-10.801,16.399-23.2L458.4,1039.6c2.8-9.199,2-18-2.801-26c-4.8-8-11.6-13.6-20.399-16c-9.2-2.8-18-2-26,2.801
	c-8,4.8-13.601,11.6-16,20.399l-11.2,40.8C380.4,1065.2,380,1068,380,1070z M398.4,187.2c0,10,3.199,18.4,10,24.8l26.399,26
	c13.601,13.6,29.2,13.6,46.8,0c6.4-6.8,9.601-15.2,9.601-24.4c0-9.2-3.2-17.2-9.601-24.4L456.4,162.8c-6.4-6.4-14.4-9.6-24-9.6
	c-9.2,0-17.2,3.2-24,10C401.6,169.6,398.4,177.6,398.4,187.2z M434,878.4c0,6.8,2,13.6,6.4,20.399c4.399,6.8,10.399,11.2,18.8,14
	c9.2,2.8,17.6,2,25.6-2c7.601-4,13.2-11.6,16-22.399L510.4,848c2.8-9.2,2-18-2.4-26s-11.2-13.6-20-16.4c-10-2.8-19.2-1.6-27.2,3.2
	s-13.2,12-14.8,21.2l-11.2,41.2C434,872.4,434,874.8,434,878.4z M545.2,947.2c0.8,15.2,9.2,26,25.2,33.2l10,1.6
	c6.399,0,12.8-2,18.8-6.4c6-4.399,10.399-10.8,12.8-20l11.6-40.399c2.4-9.601,1.2-18.4-3.6-26.4s-12-13.2-21.2-14.8
	c-8.399-2.8-16.399-2-24.8,2.8s-13.6,11.601-16.4,20.4L546.8,938c-0.399,0.8-0.399,2-0.8,3.2s-0.4,2.399-0.8,3.2
	C544.8,945.2,545.2,946.4,545.2,947.2z M601.2,756.8c0,6.4,2,12.8,6,19.2s10,10.8,18,12.8l10,1.2c7.6,0,14.8-2.4,20.8-7.2
	s9.6-11.2,11.2-18.8l10.8-39.6c2.8-9.601,2-18-2.8-26c-4.4-8-11.2-13.2-20.4-15.601c-9.2-2.8-18-2-25.6,2.4
	c-8,4.399-13.2,11.2-15.601,20l-12,42.399C601.6,750.8,601.2,754,601.2,756.8z M614.4,362.4c26.399-25.6,58.399-38.4,96-38.4
	c39.199,0,72.8,14,100.399,41.6C838.4,393.2,852.4,426.8,852.4,466c0,22.4-6.4,46-18.801,70.4C795.2,498,749.2,479.2,694.8,479.2
	h-13.6C670.8,433.6,648.4,394.8,614.4,362.4z M676,153.2c0,10,3.2,18,9.6,24.4c6.4,6.4,14.4,9.6,24.4,9.6s18-3.2,24.4-9.6
	c6.399-6.4,9.6-14.4,9.6-24.4V72.4c0-10-3.2-18.4-9.6-24.8C728,41.2,720,38,710,38s-18,3.2-24.4,9.6C679.2,54,676,62.4,676,72.4
	V153.2z M898,244.8c0,10,3.2,18,9.2,24.4c8.399,6.8,16.399,10,24.8,10c7.6,0,15.2-3.2,23.6-10l57.2-57.2
	c6.4-7.2,9.601-15.6,9.601-25.2c0-9.6-3.2-17.6-9.601-24c-6.399-6.4-14.399-9.6-23.6-9.6s-17.2,3.2-24.4,9.6L907.2,220
	C901.2,227.2,898,235.2,898,244.8z M929.6,718c0,9.2,3.601,17.6,10.4,25.2l24.8,25.6c8.4,8.4,16.4,12.4,24.8,12.4
	c7.601,0,15.601-4,23.2-12.4c7.2-7.2,10.8-15.6,10.4-24.399c-0.4-9.2-3.601-17.2-10.4-24l-26-26.4c-6.399-6.4-14-9.6-22.8-9.6
	c-9.6,0-17.6,3.199-24.4,10C933.2,700.8,929.6,708.8,929.6,718z M988.4,465.6c0,8.801,3.199,16.801,9.6,23.2
	c6.4,6.4,14.4,9.601,23.2,9.601h81.6c10.4,0,18.8-3.2,25.2-9.2c6.4-6.4,9.6-14,9.6-23.601c0-10-3.199-18.399-10-24.8
	c-6.8-6.399-14.8-9.6-24.8-9.6h-81.6c-9.2,0-17.2,3.2-23.601,10C991.6,448,988.4,456.4,988.4,465.6z"/>
</svg>
