<?xml version="1.0" encoding="utf-8"?>
<!-- Generator: Adobe Illustrator 15.0.0, SVG Export Plug-In . SVG Version: 6.00 Build 0)  -->
<!DOCTYPE svg PUBLIC "-//W3C//DTD SVG 1.1//EN" "http://www.w3.org/Graphics/SVG/1.1/DTD/svg11.dtd">
<svg version="1.1" id="Layer_1" xmlns="http://www.w3.org/2000/svg" xmlns:xlink="http://www.w3.org/1999/xlink" x="0px" y="0px"
	 width="1200px" height="1200px" viewBox="0 0 1200 1200" enable-background="new 0 0 1200 1200" xml:space="preserve">
<path fill="#FFFFFF" d="M60.4,675.6c0,53.2,18.4,99.2,55.6,137.601c37.2,38.399,82.4,58.8,136.4,61.2c4.4,0,6.8-2.4,6.8-6.801V814
	c0-4.4-2.4-6.8-6.8-6.8C218,805.6,188.8,791.6,164.8,766s-36-56-36-90.4c0-32.8,11.2-61.6,34-86.399c22.8-24.8,50.8-38.8,84-42.8
	l21.2-2c5.2,0,8-2.4,8-6.801l2.8-21.6c4.4-43.2,22.4-79.6,54.8-108.8c32.4-29.2,70.4-44,114-44c43.601,0,81.601,14.8,114.4,44
	s51.2,65.6,56,108.8l2.8,22.8c0,4.8,2.4,7.601,6.8,7.601H692.4c35.6,0,66,12.8,92,38.399c26,25.601,38.8,55.601,38.8,90.8
	c0,34.801-12,64.801-36,90.4S734,805.2,700,807.2c-4.8,0-7.6,2.399-7.6,6.8v53.6c0,4.4,2.399,6.801,7.6,6.801
	c53.2-1.601,98.4-22,135.6-60.4c37.2-38.8,55.601-84.8,55.601-138c0-28.8-5.601-55.6-16.8-80.4c31.199-38.8,46.8-82.8,46.8-132.399
	c0-38-9.601-73.2-28.4-105.6s-44.399-58-76.8-76.8c-32.4-18.8-67.2-28-104.8-28c-62.4,0-114,23.2-155.2,69.6
	c-32.8-17.6-68.8-26.4-108.4-26.4c-56.399,0-106.8,17.6-150.399,52.8c-43.6,35.2-71.6,80-84,134.4
	c-44.4,10.399-80.8,33.6-109.6,69.6C74.8,588.8,60.4,629.6,60.4,675.6z M276.4,950c0,6.8,2,13.2,6.4,19.6
	c4.4,6.4,10.8,10.801,19.6,13.2c4.4,0.8,8,1.601,10.8,1.601c15.6,0,26-8.4,30.8-25.601l63.2-235.2c2.8-9.6,1.6-18.399-3.2-26.8
	c-4.8-8.399-12-13.2-21.2-15.2c-8.8-2.8-17.2-2-25.2,2.801C349.6,688.8,344,695.6,341.2,704.8L278,941.2
	C277.2,946.4,276.4,949.2,276.4,950z M380.8,1073.2c0,7.6,2,14.399,6,20.8s10.8,10.4,20.8,12c4.4,0.8,8,1.6,10.4,1.6
	c6.4,0,12.4-2.399,18-6.8c5.6-4.8,9.2-11.2,10.8-19.2l96-357.199c2.4-9.2,1.601-18-2.8-25.601c-4.4-7.6-11.2-13.2-20-16
	c-9.2-2.8-18-2-26,2.8c-8,4.4-13.6,11.2-16,20.4l-96,357.2C381.2,1069.2,380.8,1072.8,380.8,1073.2z M397.6,184
	c0,9.6,3.2,17.6,10,24.4l26,26.4c7.601,6,16,8.8,24.801,8.8c8.399,0,16.399-3.2,23.199-9.2c6.801-6.4,10.4-14,10.4-23.6
	c0-9.6-3.2-18.4-9.6-25.6l-25.601-26c-7.2-6.8-15.2-10-24-10c-9.6,0-18,3.6-24.8,10.4C401.2,166.4,397.6,174.8,397.6,184z
	 M546.8,950.8c0,6.4,2,12.8,6,18.8s10.4,10.4,18.4,12.801c4.399,0.8,8,1.6,10,1.6c6.8,0,13.6-2,19.6-6s10-10.4,12-19.6L676,723.2
	c2.4-9.2,1.6-18-2.8-25.601c-4.4-8-11.2-13.199-20-16c-9.601-2.8-18-1.999-26,2.801C619.2,688.8,614,695.6,611.6,704.8L548.4,941.2
	C547.6,947.2,546.8,950.4,546.8,950.8z M612,361.2c28.4-26.8,61.2-40,99.2-40c39.2,0,72.8,14,100,41.6
	c27.6,27.6,41.2,61.2,41.2,100.8c0,24.801-6.801,49.601-20.801,74c-38.8-38.8-85.199-58-139.6-58h-13.2
	C668,432.4,645.6,393.2,612,361.2z M676.8,151.2c0,9.2,3.2,17.2,10,23.6c6.8,6.4,14.8,9.6,24.4,9.6c9.2,0,17.2-3.2,23.6-9.2
	c6.4-6.4,9.601-14,9.601-23.6V69.2c0-10.4-3.2-18.8-9.2-25.2c-6.4-6.4-14-9.6-23.601-9.6c-10,0-18.399,3.2-24.8,10
	c-6.399,6.8-9.6,14.8-9.6,24.8v82H676.8z M898,242.4c0,9.6,3.6,17.6,10.8,23.6c5.601,6.4,12.8,9.6,22,10.4
	c9.2,0.8,17.601-2.8,24.8-10.4l57.601-57.2c7.2-6.8,10.399-15.2,10.399-25.2c0-9.6-3.199-18-10-24.4c-6.8-6.4-14.8-9.6-24.399-9.6
	c-8.4,0-16,3.2-23.2,10l-57.2,57.6C901.6,224,898,232.4,898,242.4z M930.4,716.4c0,9.6,3.199,18,9.6,25.199l26,25.2
	c7.2,5.601,15.2,8.4,24,8.4l0.8,0.8c9.2,0,16.8-3.2,23.2-9.6c6.4-6.4,9.6-14.801,9.6-24.4s-3.6-17.2-10.399-23.2L988.4,692.4
	C981.2,686,972.8,682.8,963.6,682.8c-9.199,0-17.199,3.2-23.6,10S930.4,706.8,930.4,716.4z M988.8,463.2c0,9.6,3.601,17.2,10.4,23.6
	c7.2,7.2,15.2,10.4,24.8,10.4h81.2c9.6,0,17.6-3.2,24.399-10c6.801-6.8,10-14.8,10-24c0-9.601-3.199-17.601-10-24.4
	c-6.8-6.8-14.8-10.399-24.399-10.399H1024c-9.6,0-17.6,3.6-24.8,10.399S988.8,453.6,988.8,463.2z"/>
</svg>
