<?xml version="1.0" encoding="utf-8"?>
<!-- Generator: Adobe Illustrator 15.0.0, SVG Export Plug-In . SVG Version: 6.00 Build 0)  -->
<!DOCTYPE svg PUBLIC "-//W3C//DTD SVG 1.1//EN" "http://www.w3.org/Graphics/SVG/1.1/DTD/svg11.dtd">
<svg version="1.1" id="Layer_1" xmlns="http://www.w3.org/2000/svg" xmlns:xlink="http://www.w3.org/1999/xlink" x="0px" y="0px"
	 width="1200px" height="1200px" viewBox="0 0 1200 1200" enable-background="new 0 0 1200 1200" xml:space="preserve">
<path fill="#FFFFFF" d="M162.8,676c0,53.2,18.8,99.2,56,137.6c37.2,38.4,82.8,58.801,136,61.2c4.8,0,7.2-2.399,7.2-6.8v-53.6
	c0-4.4-2.4-6.801-7.2-6.801c-34.399-2-63.6-15.6-87.6-41.199c-24-25.601-36-55.601-36-90.4c0-33.2,11.2-62,34-86.8
	c22.8-24.8,50.8-38.8,84-42.8l21.2-1.601c5.199,0,8-2.399,8-6.8l2.8-21.6C385.6,473.2,404,436.8,436.4,407.6
	c32.399-29.2,70.8-44,114.399-44c43.601,0,81.601,14.8,114.4,44c32.8,29.2,51.2,65.601,56,108.801l3.2,22.8c0,4.8,2.399,7.2,6.8,7.2
	H796c35.6,0,66.8,12.8,92.8,38.399c26,25.601,39.2,56,39.2,91.2c0,34.8-12,64.8-36,90.4C868,792,838.8,805.6,804.4,807.6
	c-5.601,0-8.4,2.4-8.4,6.801V868c0,4.4,2.8,6.8,8.4,6.8c53.199-1.6,98.399-22,135.199-60.399C976.8,775.6,995.2,729.6,995.2,676.4
	c0-35.2-9.2-68-27.2-98.4c32.4-29.2,53.2-64,63.2-104.8l5.6-28.8c0.4-0.4,0.8-1.2,0.8-2.801c0-2.8-2-5.199-6.399-6.399l-22.4-7.2
	c-22.8-6.4-42.399-17.6-58.399-33.2c-16.4-15.6-28-32-34.801-49.2c-6.8-17.2-10.399-34.4-10.399-51.2c-0.8-8.8,0.399-20,3.2-32.8
	l5.6-24.4c1.6-4,0-7.2-5.6-9.6L876.8,218c-18-4-34.8-6-50.8-6c-15.2,0-30.4,1.6-45.6,5.2c-15.601,3.6-31.601,8.8-48,16.4
	c-16.4,7.2-32.4,18-48.001,32c-15.6,14-28.8,30-40,48.8c-32.8-12-64-18-93.199-18c-56.4,0-106.801,17.6-150.4,52.8
	c-43.6,35.2-72,80-84.4,134.8c-44.399,10.4-80.8,33.2-109.6,69.2C177.2,588.8,162.8,630,162.8,676z M385.2,949.6
	c0,6.801,2,13.2,6.399,19.601C396,975.6,402.4,980,411.2,982.4c9.2,2.8,18,2,25.6-1.601c8-4,13.2-11.2,16-22.399L510,723.6
	c2.4-10,1.2-19.199-3.2-26.8c-4.8-8-11.6-12.8-20.8-14.8c-8.8-2.8-17.2-2-25.2,2.8c-8,4.4-13.6,11.2-16.399,20.4l-57.601,236
	c0,0.399-0.399,1.6-0.8,3.6S385.2,948.4,385.2,949.6z M489.6,1072.4c0,6.399,2,12.399,6,18.399s10,10,18,12.4
	c4.4,1.2,7.601,1.6,9.601,1.6c17.6,0,28.399-8,32.8-23.6L646,724c2.4-9.6,1.6-18.4-2.8-26c-4.4-7.6-11.2-12.8-20-15.6
	c-9.2-2.801-18-2-26.4,2.8c-8.399,4.8-13.6,11.2-15.6,20L490.8,1062c0,0.4,0,2-0.399,4.8C489.6,1069.2,489.6,1071.2,489.6,1072.4z
	 M656,952.8c0,14.4,8.4,24,25.2,29.601c5.6,1.6,9.6,2.399,12,2.399c4.399,0,9.2-0.8,14-2.8c8.399-3.2,13.6-11.2,15.6-23.2L780,724
	c2.4-9.6,1.6-18-3.2-26c-4.399-7.6-11.2-12.8-20.399-15.6c-9.2-2.801-18-2-26.4,2.8c-8.4,4.399-13.2,11.2-15.2,20.399l-57.2,236
	C656.8,948,656,952,656,952.8z M703.2,350.8c12.8-23.2,30-40.8,52.399-53.2c22-12,45.601-18,70.4-17.6c4.8,0,8.4,0,10.8,0.4v12
	c-0.399,38.8,9.601,75.2,30.8,110C888.4,436.8,918,463.2,956,481.2c-8.8,18.399-19.6,32.399-31.6,42.8
	c-36.801-30.4-79.601-45.2-129.2-45.2h-12.4C772,428,745.6,385.6,703.2,350.8z"/>
</svg>
