<?xml version="1.0" encoding="utf-8"?>
<!-- Generator: Adobe Illustrator 15.0.0, SVG Export Plug-In . SVG Version: 6.00 Build 0)  -->
<!DOCTYPE svg PUBLIC "-//W3C//DTD SVG 1.1//EN" "http://www.w3.org/Graphics/SVG/1.1/DTD/svg11.dtd">
<svg version="1.1" id="Layer_1" xmlns="http://www.w3.org/2000/svg" xmlns:xlink="http://www.w3.org/1999/xlink" x="0px" y="0px"
	 width="1200px" height="1200px" viewBox="0 0 1200 1200" enable-background="new 0 0 1200 1200" xml:space="preserve">
<path fill="#FFFFFF" d="M60.8,676c0,44.4,13.2,83.6,39.2,118.4c26,34.8,60.4,58.399,102.8,71.199l-25.6,68c-1.6,5.601,0,8.4,5.6,8.4
	H268l-50,158h11.6l166.8-215.6c1.6-1.601,1.6-3.601,0.399-5.601c-0.8-2-2.8-2.8-5.6-2.8h-86.8l98.8-185.2c2.8-5.6,0.8-8.8-5.601-8.8
	H280c-3.6,0-6.8,2-9.2,5.6L228,802.8c-28.4-7.2-52-22.8-70.8-46.399c-18.8-23.601-28-50.4-28-80.4c0-33.2,11.2-62,34-86.8
	c22.8-24.8,50.8-38.8,84-42.8L268,544c5.2,0,8-2.4,8-7.2l2.4-20.399c4.4-43.2,22.8-79.601,55.2-108.801
	c32.4-29.2,70.801-44,114.4-44s81.6,14.8,114,44c32.4,29.2,51.2,65.601,56,108.801l2.4,23.199c0,4.4,2.399,6.801,7.199,6.801H692
	c36.4,0,67.2,12.8,92.8,38C810.4,609.6,823.2,640,823.2,676c0,34-12,63.6-35.601,88.4C764,789.2,734.8,803.2,700,806
	c-5.2,0-8,2.4-8,7.2V868c0,4.4,2.8,6.8,8,6.8c53.2-1.6,98.4-22,135.6-60.399C872.8,776,891.2,730,891.2,676.4
	c0-29.601-5.601-56.4-17.2-80.4c31.6-38.4,47.2-82.4,47.2-132.8c0-37.601-9.601-72.4-28.4-104.8C874,326,848.4,300.4,816,281.6
	c-32.4-18.8-67.2-28.4-104.8-28.4c-61.601,0-113.601,23.2-155.2,69.2c-32.4-17.2-68.4-26-108-26c-56.4,0-106.8,17.6-150.4,52.4
	c-43.6,34.8-71.6,79.601-84,134.4c-44.4,10.399-80.8,33.2-109.2,69.2S60.8,630,60.8,676z M384.4,1059.2c-0.4,6,1.199,12,5.6,17.6
	c4.4,5.601,10.4,10,18.4,13.2c2.8,0.8,5.6,1.2,8.399,1.2c6.8,0,13.601-2,20.4-6s11.2-10.4,13.6-18.8L542.4,723.6
	c2.399-9.199,1.6-18-2.801-25.6c-4.399-8-10.8-13.2-19.6-16c-9.2-2.8-18-2-26,2.8c-8,4.4-13.6,11.2-16,20.4l-92.4,344
	C384.8,1052,384.4,1055.6,384.4,1059.2z M397.6,185.2c0,9.6,3.2,17.2,10,23.6l25.601,26.4c6.8,6.8,14.8,10,24.399,10.4
	c9.601,0,17.2-3.2,22.801-10.4c7.6-6,11.199-14,11.199-24c0-9.6-3.199-17.2-10-23.6L456.4,161.2c-6.801-6.4-15.2-9.6-24.4-9.6
	c-10,0-18.4,3.2-24.8,9.6C400.8,167.6,397.6,175.6,397.6,185.2z M550.8,937.2c0,4.8,1.601,9.6,4.4,15.2c5.2,8,11.6,13.6,20,17.199
	c2.8,1.2,6.8,2,12,2c6,0,10.399-0.8,13.2-2.399c8-3.2,13.6-11.2,16.399-23.2L676.4,724c2.399-9.6,1.6-18-2.801-26
	c-4.399-7.6-11.199-12.8-20.399-15.6c-9.2-2.801-18-2-25.601,2.8c-8,4.399-13.199,11.2-15.6,20.399L552,928c0,0.8-0.4,2.4-0.8,4.4
	C550.8,934.8,550.8,936,550.8,937.2z M612,361.6c26.8-25.6,59.6-38.8,99.2-38.8c38.8,0,72.399,13.6,100,40.8
	c27.6,27.2,41.6,60.4,41.6,99.2c0,24.8-6.8,49.601-20.8,74c-39.6-39.2-86.4-58.8-140-58.8h-12.4C667.2,431.2,644.4,392.4,612,361.6z
	 M676.4,151.6c0,9.2,3.6,17.2,10.399,24c6.8,6.8,14.8,10.4,24,10.4c9.601,0,17.2-3.2,23.601-10c6.399-6.8,9.199-14.8,9.199-24.4
	V69.2c0-9.6-3.199-17.6-9.199-24.4c-6-6.8-14-10-23.601-10c-9.2,0-17.2,3.2-24,10C680,51.6,676.4,59.6,676.4,69.2V151.6z
	 M897.6,242.8c0,9.6,3.601,17.6,10.4,24c5.6,6.8,13.2,10,22.8,10c9.601,0,17.601-3.2,24-10l57.601-58c6.8-6.4,10.399-14,10.399-23.6
	c0-9.6-3.2-17.6-10-24.4c-6.8-6.8-14.8-10-24.399-10c-8.801,0-16.4,3.6-22.801,10.4L908,218.8C901.2,225.2,897.6,233.2,897.6,242.8z
	 M930,717.2c0,8.8,3.2,16.8,9.6,24l26.4,25.2c4.8,5.6,12.4,9.199,21.6,9.6l0.4,0.4c0.4,0,1.2,0,2,0s1.2,0,2,0
	c7.6,0,14.4-3.601,21.2-10.4c6.8-6.4,10.399-14.4,10.399-24c0-9.2-3.6-17.2-10.399-24.4l-26-24.399c-6.4-7.2-14.4-10.8-23.2-10.8
	c-9.2,0-17.2,3.199-24,10C933.2,699.6,930,708,930,717.2z M988,463.2c0,9.2,3.6,17.2,10.8,24c7.2,7.2,15.2,10.8,24.4,10.8h81.2
	c9.199,0,17.199-3.6,24-10.4c6.8-6.8,10.399-15.199,10.399-24.399s-3.2-17.2-10-23.601c-6.8-6.399-14.8-9.6-24.399-9.6h-81.2
	c-10,0-18.4,3.2-25.2,9.6C991.2,446,988,454,988,463.2z"/>
</svg>
