<?xml version="1.0" encoding="utf-8"?>
<!-- Generator: Adobe Illustrator 15.0.0, SVG Export Plug-In . SVG Version: 6.00 Build 0)  -->
<!DOCTYPE svg PUBLIC "-//W3C//DTD SVG 1.1//EN" "http://www.w3.org/Graphics/SVG/1.1/DTD/svg11.dtd">
<svg version="1.1" id="Layer_1" xmlns="http://www.w3.org/2000/svg" xmlns:xlink="http://www.w3.org/1999/xlink" x="0px" y="0px"
	 width="1200px" height="1200px" viewBox="0 0 1200 1200" enable-background="new 0 0 1200 1200" xml:space="preserve">
<path fill="#FFFFFF" d="M163.2,675.2c0,44.399,13.2,84,39.6,119.2C229.2,829.6,263.6,853.2,306,866l-26.4,67.6
	c-1.2,5.601,0.8,8.4,6,8.4h84.8L331.6,1082.4H343.2L499.6,884.8c1.601-2,1.601-4,0.4-6s-3.2-2.8-6-2.8h-87.2L506,690.8
	c2.8-5.6,1.2-8.8-5.2-8.8H382.4c-3.601,0-6.4,2-9.2,5.6l-42.8,115.2c-28.8-7.2-52.4-22.8-71.2-46.8c-18.8-24-28-50.8-28-80.4
	c0-33.2,11.2-62,34-86.8C288,564,316,550,349.2,546l20.8-3.2c5.2,0,8-2.4,8-6.8l2.8-20.8c4.4-43.2,22.4-79.601,54.8-108.801
	c32.4-29.2,70.4-44,114-44c43.2,0,81.2,14.8,114,44C696.4,435.6,715.2,472,720,514.8l2.8,23.6c0,4.4,2.4,6.801,7.2,6.801h64.8
	c36.4,0,67.2,12.8,93.2,38c26,25.199,38.8,56,38.8,91.6c0,34-12,63.6-36,88.4c-24,24.8-53.2,38.8-88,41.6c-4.8,0-7.6,2.4-7.6,6.8
	v55.2c0,4.8,2.399,7.2,7.6,7.2c35.2-1.2,67.2-10.8,96.4-28.8s52.399-42,69.2-72c16.8-30,25.199-62.801,25.199-98
	c0-34.801-8.8-67.2-26.399-98c31.6-30.4,52.399-65.2,62.399-104.801l5.601-28.8c0.399-0.399,0.8-1.6,0.8-2.8c0-2.8-2-4.8-6.4-6
	l-22.399-7.2c-22.8-6.399-42.4-17.6-58.4-32.8c-16.399-15.2-28-32-34.8-49.2c-6.8-17.6-10.4-35.2-10.4-52.8c0-10.4,1.2-21.2,3.2-32
	l5.601-24.4c1.6-4,0-7.2-5.601-9.2c-8.399-3.6-20.399-6.8-36-10.4c-15.6-3.6-30.8-5.2-46-5.2c-14.399,0-29.2,1.6-44.8,5.2
	c-15.2,3.6-31.2,8.8-47.6,16.4c-16.4,7.2-32.4,18-48,32c-15.601,14-28.801,30-40,48.8c-32.801-12-64.801-18-95.2-18
	c-56.4,0-106.8,17.6-150.4,52.4c-43.6,34.8-72,79.6-84.399,134.4c-44.4,10.4-80.8,33.6-109.601,69.6
	C177.6,587.6,163.2,628.8,163.2,675.2z M487.2,1068c0,6.4,2,12.8,6,18.4c4,6,10,10,18,12c4.399,0.8,8.399,1.199,12,1.199
	c16.399,0,26.399-8.399,30.399-25.199L646.4,722.8c2.399-9.6,1.6-18-2.801-26c-4.399-8-11.199-13.2-20-15.6
	c-9.199-2.8-18-2-26,2.399c-8,4.4-13.6,10.801-16,19.601l-92.8,353.6C487.6,1060.8,487.2,1064.4,487.2,1068z M654,947.2
	c0,6.399,2,12.8,6,18.399c4,5.601,10,10,18.4,12.4c1.199,0,3.199,0,6,0.4c2.8,0.399,5.199,0.399,6.399,0.399
	c15.2,0,24.8-8.399,28.8-25.2l60-230.8c2.4-9.6,1.601-18.399-3.199-26.399C772,688.8,765.2,683.6,756,681.2c-9.2-2.8-18-2-26,2.399
	c-8,4.4-13.2,10.801-15.6,20l-60,232.801C654.4,940.4,654,944,654,947.2z M703.6,350c13.2-22.8,30.801-40,53.2-52
	c22-12,45.601-18,70.4-18c4.8,0,8.8,0,10.8,0.4v12.8c0,38.4,10.4,74.8,31.2,109.2c20.8,34.399,50,60.399,86.8,78.8
	c-7.2,16.8-17.6,30.8-31.6,42.8C887.6,492.4,844.8,476.8,795.6,476.8h-12.8C771.6,426.4,745.2,384.4,703.6,350z"/>
</svg>
