<?xml version="1.0" encoding="utf-8"?>
<!-- Generator: Adobe Illustrator 15.0.0, SVG Export Plug-In . SVG Version: 6.00 Build 0)  -->
<!DOCTYPE svg PUBLIC "-//W3C//DTD SVG 1.1//EN" "http://www.w3.org/Graphics/SVG/1.1/DTD/svg11.dtd">
<svg version="1.1" id="Layer_1" xmlns="http://www.w3.org/2000/svg" xmlns:xlink="http://www.w3.org/1999/xlink" x="0px" y="0px"
	 width="1200px" height="1200px" viewBox="0 0 1200 1200" enable-background="new 0 0 1200 1200" xml:space="preserve">
<path fill="#FFFFFF" d="M63.2,677.2c0,34.399,8.4,66.8,25.6,96.399c16.8,29.601,40,53.601,69.6,71.601c29.2,18,61.6,27.6,96,28.399
	c4.4,0,6.8-2.399,6.8-6.8v-53.2c0-4.8-2.4-7.6-6.8-7.6c-34-1.6-63.2-15.2-87.2-40.8c-24-25.601-36-54.8-36-88.4
	c0-32.8,11.2-61.6,34-86.399c22.8-24.4,50.4-38.801,84-42.801l21.2-2.399c4.8,0,7.2-2.4,7.2-7.601l3.2-20.399
	c4.4-43.601,22.4-80,54.4-109.2s70-43.6,114-43.6c43.6,0,81.6,14.4,114,43.6c32.8,29.2,51.2,65.2,55.2,108l2.8,23.2
	c0,4.399,2.399,6.8,6.8,6.8h64.4c36,0,66.8,12.8,92.399,38.4c25.601,25.6,38.4,56,38.4,91.6c0,33.6-12,62.8-36,88.4
	c-24,25.199-53.2,38.8-86.8,40.8c-4.801,0-7.601,2.399-7.601,7.6V866c0,4.4,2.4,6.8,7.601,6.8c53.199-1.6,98-21.6,135.199-60
	C872.8,774.4,891.2,729.2,891.2,676.4c0-30.4-5.601-57.2-17.2-81.2C904,558,920,514,920,464c0-37.6-9.2-72.4-28-104.4
	s-44.4-57.6-76.4-76.4c-32-18.8-67.199-28-104.8-28c-61.6,0-113.2,23.2-154.8,69.2c-32.4-17.6-68.4-26.4-107.6-26.4
	c-56.4,0-106,17.6-149.601,52.4c-43.6,34.8-71.2,79.6-83.6,133.6c-44.8,11.2-81.2,34.4-109.6,70C77.2,590,63.2,630.8,63.2,677.2z
	 M316.8,839.2c0,9.6,3.2,17.6,9.601,24.399c6.399,6.801,14,10,23.6,10c9.2,0,17.2-3.199,23.6-10c6.4-6.8,9.601-14.8,9.601-24.399
	c0-9.2-3.2-16.8-9.601-23.2c-6.399-6.4-14-9.6-23.6-9.6c-9.2,0-17.2,3.199-23.6,9.6C320,822.4,316.8,830.4,316.8,839.2z
	 M316.8,984.4c0,8.399,3.2,16,9.601,22.8c7.199,6.399,14.8,9.6,23.199,9.6c9.601,0,17.2-3.2,23.601-9.2
	c6.399-6.399,9.2-14,9.2-23.199c0-9.601-3.2-17.2-9.601-23.601c-6.399-6.399-14-9.2-23.6-9.2c-9.2,0-17.2,3.2-23.601,9.2
	C320,966.8,316.8,974.8,316.8,984.4z M398.8,187.2c0,9.6,3.2,17.6,9.601,23.6l26.399,26.4c6.4,6.4,13.601,10,21.2,10
	c8.4,1.2,16.4-1.6,24.4-8.8c8-7.2,12-15.6,12-25.2c0-9.6-3.2-18.4-9.601-25.6l-25.6-24.4c-6-6.8-13.601-10-23.2-10
	c-10,0-18.4,3.2-25.2,10C402,169.6,398.8,177.6,398.8,187.2z M444,916c0,8.8,3.2,16.8,9.6,24c6.4,6.4,14.4,9.6,23.2,9.6
	c9.601,0,17.601-3.199,24-9.6c6.4-6.4,10-14.4,10-24c0-9.2-3.2-17.2-10-24s-14.8-10-24-10s-16.8,3.2-23.2,10
	C447.2,898.8,444,906.8,444,916z M444,772c0,9.2,3.2,16.8,9.6,23.2c6.4,6.399,14.4,9.6,23.2,9.6c9.601,0,17.601-3.2,24-9.6
	c6.8-6.4,10-14,10-23.601c0-9.199-3.2-17.199-10-23.6s-14.8-9.6-24-9.6S460,741.6,453.6,748C447.2,754.4,444,762.8,444,772z
	 M444,1062.4c0,8.8,3.2,16.399,9.6,22.8c6.801,6.8,14.4,10,23.2,10c9.601,0,17.601-3.2,24-9.2c6.8-6.4,10-14,10-23.6
	c0-9.601-3.2-17.601-10-24c-6.8-6.801-14.8-10-24-10c-8.8,0-16.399,3.199-23.2,10C447.2,1045.2,444,1053.2,444,1062.4z M572.8,839.2
	c0,9.6,3.2,17.6,9.601,24.399c6.399,6.801,14.399,10,23.6,10s17.2-3.199,23.6-10c6.4-6.8,9.601-14.8,9.601-24.399
	c0-9.2-3.2-16.8-9.601-23.2c-6.399-6.4-14-9.6-23.6-9.6s-17.2,3.199-23.6,9.6C576,822.4,572.8,830.4,572.8,839.2z M572.8,984.4
	c0,8.399,3.2,16,9.2,22.8c7.2,6.399,15.2,9.6,24,9.6c9.6,0,17.2-3.2,23.6-9.2c6.4-6.399,9.2-14,9.2-23.199
	c0-9.601-3.2-17.2-9.6-23.601c-6.4-6.399-14-9.2-23.601-9.2c-9.6,0-17.6,3.2-24,9.601C576,967.2,572.8,975.2,572.8,984.4z
	 M612,362.4c27.6-26.4,60.4-39.6,98.8-39.6c38.8,0,72,14,99.2,41.6c27.6,27.6,41.2,61.2,41.2,99.6c0,24.8-6.8,49.6-20.4,73.6
	C792.8,499.2,746.4,480,692,480h-12.8C667.2,433.2,644.8,394,612,362.4z M676,153.6c0,9.2,3.2,17.2,10,23.2s14.8,9.2,24.4,9.2
	c9.6,0,17.199-3.2,23.6-9.2c6.4-6.4,9.2-14,9.2-23.2V72c0-9.6-3.2-17.6-9.601-24.4c-6.399-6.8-13.6-10-22.8-10s-17.2,3.6-24,10.4
	S676.4,62.8,676.4,72v81.6H676z M896.8,244.4c0,9.2,3.2,17.2,10,23.6c6,6.4,13.601,9.6,22.4,10.4c8.8,0.8,17.2-2.8,24.8-10.4
	l57.2-57.2c7.2-7.2,10.399-15.2,10.399-24.4c0-9.6-3.6-17.6-10.399-24.4s-14.8-10-24-10c-8.8,0-16.4,3.2-23.2,10l-57.2,58.4
	C900,226.8,896.8,234.8,896.8,244.4z M928.8,716.4c0,10,3.2,18.399,9.601,24.8l25.6,25.2c9.6,6.399,18.4,9.6,25.6,9.6
	c8.4,0,15.601-3.6,22.4-10.4c6.8-6.8,10-15.199,10-24.399s-3.6-16.8-10.4-23.2l-24.8-26c-7.2-6.4-15.2-9.6-24.399-9.6
	c-9.201,0-17.2,3.199-23.601,10C932,698.8,928.8,706.8,928.8,716.4z M986.8,464c0,9.6,3.601,17.2,10.4,23.6
	c6.8,7.2,15.2,10.801,24.8,10.801h80.8c9.2,0,17.2-3.2,24-10c6.8-6.801,10-14.801,10-24.4s-3.2-17.6-10-24s-14.8-10-24-10H1022
	c-9.6,0-17.6,3.2-24.8,10S986.8,454.8,986.8,464z"/>
</svg>
