<?xml version="1.0" encoding="utf-8"?>
<!-- Generator: Adobe Illustrator 15.0.0, SVG Export Plug-In . SVG Version: 6.00 Build 0)  -->
<!DOCTYPE svg PUBLIC "-//W3C//DTD SVG 1.1//EN" "http://www.w3.org/Graphics/SVG/1.1/DTD/svg11.dtd">
<svg version="1.1" id="Layer_1" xmlns="http://www.w3.org/2000/svg" xmlns:xlink="http://www.w3.org/1999/xlink" x="0px" y="0px"
	 width="1200px" height="1200px" viewBox="0 0 1200 1200" enable-background="new 0 0 1200 1200" xml:space="preserve">
<path fill="#FFFFFF" d="M169.2,675.6c0,53.2,18.8,99.2,56,137.601c37.2,38.399,82.8,58.8,136,61.2c4.8,0,7.2-2.4,7.2-6.801V814
	c0-4.4-2.4-6.8-7.2-6.8c-34.4-2-63.6-15.601-87.6-41.2s-36-55.6-36-90.4c0-33.199,11.2-62,34-86.8c22.8-24.399,50.8-38.8,84-42.8
	l21.2-1.6c5.2,0,8-2.4,8-7.2l2.8-21.601C392,472.4,410,436,442.4,406.8c32.399-29.2,70.399-44,114-44c43.6,0,81.6,14.8,114.399,44
	c32.8,29.2,51.2,65.601,56,108.8L730,538.4c0,4.8,2.4,7.6,6.8,7.6h64.8c36.4,0,67.2,12.8,93.2,38c25.601,25.2,38.8,56,38.8,91.2
	c0,34.399-12,64.399-36.399,90c-24.4,25.6-53.601,39.6-87.601,41.6c-4.8,0-7.6,2.4-7.6,6.8V867.2c0,4.399,2.4,6.8,7.6,6.8
	c53.601-1.6,98.801-22,136-60.4c37.2-38.8,55.601-84.8,55.601-138c0-28.399-5.601-55.199-17.2-80.399
	c31.6-38.4,47.2-82.8,47.2-132.8c0-38-9.601-73.201-28.4-105.601S958.4,298.8,926,280c-32.4-18.8-67.2-28-104.8-28
	c-62,0-114,23.2-155.601,69.2c-32.399-17.2-68.399-26-108.399-26c-56.4,0-106.8,17.6-150.4,52.8c-43.6,35.2-72,80-84.399,134.4
	C278,492.8,241.6,516,212.8,552C183.6,588.4,169.2,629.6,169.2,675.6z M424.8,840.4c0,8.8,3.2,16.399,9.601,22.8
	c6.8,6.8,14.399,10,23.199,10c9.2,0,17.2-3.2,23.601-9.2c6.399-6,9.6-14,9.6-23.6c0-9.601-3.2-17.2-9.2-23.601
	c-6.399-6.399-14-9.2-23.6-9.2s-17.2,3.2-23.6,9.2C428,822.8,424.8,830.8,424.8,840.4z M424.8,985.6c0,9.601,3.2,17.2,9.601,23.2
	c6.399,6.4,14.399,9.601,23.199,9.601c9.601,0,17.2-3.2,23.601-9.2c6.399-6.4,9.2-14,9.2-23.601c0-9.6-3.2-17.6-9.601-24
	c-6.399-6.399-14-10-23.6-10c-9.2,0-17.2,3.2-23.601,10C427.2,968.4,424.8,976,424.8,985.6z M552.4,916c0,9.2,3.199,17.6,10,24.4
	c6.8,6.8,14.399,10.8,23.199,10.8c9.2,0,17.2-3.601,24-10.4c6.801-6.8,10-15.2,10-24.8c0-8.8-3.199-16.4-10-23.2
	c-6.8-6.8-14.8-10-24-10c-8.8,0-16.399,3.2-23.199,10C555.6,899.6,552.4,907.2,552.4,916z M552.4,772.4
	c0,9.199,3.199,16.8,9.6,23.199c6.4,6.4,14.4,9.601,23.6,9.601c9.601,0,17.601-3.2,24-9.601c6.4-6.399,10-14,10-23.6
	s-3.199-17.2-10-24c-6.8-6.8-14.8-10-24-10c-9.199,0-16.8,3.2-23.6,10S552.4,763.2,552.4,772.4z M552.4,1063.2
	c0,9.2,3.199,17.2,10,24c6.8,6.8,14.399,10,23.6,10s17.2-3.2,24-10s10-14.8,10-24c0-8.8-3.2-16.4-10-23.2s-14.8-10-24-10
	c-8.8,0-16.4,3.2-23.2,10S552.4,1054.4,552.4,1063.2z M682,840.4c0,8.399,3.2,16,9.6,22.8c6.801,6.8,14.801,10,24,10
	c9.2,0,17.2-3.2,23.601-9.2c6.399-6.4,9.6-14,9.6-23.6c0-9.601-3.2-17.2-9.2-23.601c-6.399-6.399-14-9.2-23.6-9.2s-17.6,3.2-24,9.2
	C685.2,822.8,682,830.8,682,840.4z M682,985.6c0,8.801,3.2,16.801,9.6,23.2c6.4,6.4,14.4,9.601,24,9.601
	c9.601,0,17.2-3.2,23.601-9.2c6.399-6.4,9.2-14,9.2-23.601c0-9.6-3.2-17.6-9.601-24c-6.399-6.8-14-10-23.6-10c-9.2,0-17.2,3.2-24,10
	C684.4,968.4,682,976,682,985.6z M721.2,360.8c27.2-27.2,60-40.4,99.2-40.4c39.199,0,72.399,14,100,41.6
	C948,389.6,961.6,423.2,961.6,462.8c0,23.601-6.8,48-20.399,73.601C902.8,498,856,478.8,801.2,478.8h-12.4
	C777.6,432,754.8,392.8,721.2,360.8z"/>
</svg>
