<?xml version="1.0" encoding="utf-8"?>
<!-- Generator: Adobe Illustrator 15.0.0, SVG Export Plug-In . SVG Version: 6.00 Build 0)  -->
<!DOCTYPE svg PUBLIC "-//W3C//DTD SVG 1.1//EN" "http://www.w3.org/Graphics/SVG/1.1/DTD/svg11.dtd">
<svg version="1.1" id="Layer_1" xmlns="http://www.w3.org/2000/svg" xmlns:xlink="http://www.w3.org/1999/xlink" x="0px" y="0px"
	 width="1200px" height="1200px" viewBox="0 0 1200 1200" enable-background="new 0 0 1200 1200" xml:space="preserve">
<path fill="#FFFFFF" d="M174.8,624.8c0-9.6,3.2-17.6,10-24.399c7.2-6.801,15.2-10,24-10h81.6c9.2,0,16.8,3.199,23.2,10
	c6,6.8,9.2,14.8,9.2,24.399c0,9.601-3.2,17.601-9.2,24c-6,6.8-14,10-23.2,10h-81.2c-9.2,0-17.2-3.2-24-10
	C178.4,642,174.8,634,174.8,624.8z M289.2,348.4c0-9.2,3.2-17.2,9.2-24.4c8-6.8,16.4-10,25.6-10c8.4,0,16.4,3.2,23.6,10l57.2,58.4
	c6.4,6,9.601,14,9.601,23.6s-3.2,17.6-9.601,24c-6.399,6.4-14.399,9.6-24,9.6c-9.6,0-17.6-3.199-23.6-9.6l-58.4-57.2
	C292.4,366,289.2,358,289.2,348.4z M295.6,720.8c0-8.8,3.2-16.399,9.2-22c6.4-5.6,14.8-8.8,25.601-8.8H558.8
	c10.8,0,19.2,2.8,25.601,8.8c6.399,5.601,9.6,13.2,9.6,22c0,10.8-3.2,19.2-9.2,25.601c-6.399,6.399-14.8,9.6-26,9.6H330.4
	c-10.801,0-19.2-3.2-25.601-9.2C298.4,740.8,295.6,731.6,295.6,720.8z M335.2,838.8c0-8.8,3.6-16.8,11.2-24
	c7.199-7.2,15.6-10.8,24-10.8c10.399,0,18.8,3.6,25.199,10.4C402,821.6,405.2,829.6,405.2,838.8c0,11.2-3.2,19.601-9.2,26
	c-6,6.4-14.8,9.2-25.6,9.2c-9.2,0-17.601-3.2-24.4-9.6C338.8,858,335.2,849.2,335.2,838.8z M391.6,636.4V633.6
	c1.2-50.399,18.801-94,52.4-131.199c33.6-37.2,74.8-59.601,124-67.601h2c7.6-1.6,18-2.399,30.4-2.399
	c12.399,0,22.8,0.8,30.399,2.399h1.601c48.8,7.601,90.399,30.4,124,67.601C790,539.6,807.6,583.2,808.8,633.6v2.801
	c0,6.399-3.2,9.6-9.2,9.6H754.4c-4.801,0-8-1.2-10-3.6c-2-2.4-2.801-4.801-2.801-7.2c-1.6-37.2-16-68.8-43.199-94.8
	C671.2,514.4,638.8,501.6,600.8,501.6S530.4,514.4,503.2,540.4S461.6,598,460,635.2c0,2.399-1.2,4.8-3.2,7.2
	c-2,2.399-5.6,3.6-10.399,3.6h-45.2C394.8,646,391.6,642.8,391.6,636.4z M432,838.8c0-9.2,3.2-17.2,9.6-24.399
	C448,807.6,456.4,804,466.8,804H620c8.8,0,16.8,3.6,24,10.8s11.2,15.2,11.2,24c0,10.4-3.601,19.2-10.8,25.601
	c-7.2,6.399-15.2,9.6-24.4,9.6H466.8c-10.8,0-19.2-3.2-25.6-9.2C434.8,858.4,432,850,432,838.8z M565.6,315.6v-81.2
	c0-9.6,3.2-17.6,10-24.4c6.801-6.8,14.801-10,24.4-10s17.2,3.2,24,10s10,14.8,10,24.4v81.2c0,9.2-3.2,17.2-10,23.2s-14.8,9.6-24,9.6
	s-17.6-3.2-24-9.2S565.6,324.8,565.6,315.6z M620,720.8c0-8.399,3.6-15.6,10.8-21.6s15.2-9.2,24.4-9.2s17.2,3.2,24.399,9.2
	c7.2,6,10.801,13.2,10.801,21.6c0,10.4-3.601,19.2-10.801,25.601C672.4,752.8,664.4,756,655.2,756s-17.601-3.2-24.4-9.6
	C623.6,739.6,620,731.2,620,720.8z M681.6,838.8c0-9.2,3.2-17.2,9.601-24.399c6.399-6.801,15.2-10.4,25.6-10.4h74.4
	c10.399,0,18.8,3.6,25.2,10.4C822.8,821.6,826,829.6,826,838.8c0,11.2-3.2,19.601-9.2,26c-6,6.4-14.8,9.2-25.6,9.2h-74.4
	c-10.8,0-19.2-3.2-25.6-9.2C684.8,858.4,681.6,850,681.6,838.8z M716.8,720.8c0-8.399,3.601-15.6,10.8-21.6c7.2-6,15.2-9.2,24-9.2
	H874.4c8.8,0,16,2.8,21.6,8.8s8.8,13.2,8.8,22c0,10.8-2.8,19.2-8.399,25.601c-5.601,6.399-12.801,9.6-22,9.6H751.6
	c-9.199,0-17.199-3.2-24.399-9.6C720.4,739.6,716.8,731.2,716.8,720.8z M786.4,406c0-10,3.199-18,9.199-23.6L852.4,324
	c7.199-6.8,15.199-10,23.6-10c9.2,0,17.2,3.2,24,10s10,14.8,10,24.4s-3.2,18-9.6,24.4L842,429.6c-7.2,6.4-15.2,9.601-24,9.601
	c-9.2,0-16.4-3.2-22.4-9.601C789.6,423.6,786.4,415.6,786.4,406z M876.8,624.8c0-9.2,3.2-17.2,9.601-24.399
	c6.8-6.801,14.399-10,22.8-10H990c9.2,0,17.2,3.6,24,10.399s10.4,14.8,10.4,24s-3.601,17.2-10.4,24s-14.8,10-24,10h-80.8
	c-9.2,0-17.2-3.2-23.2-10S876.8,634.4,876.8,624.8z"/>
</svg>
