<?xml version="1.0" encoding="utf-8"?>
<!-- Generator: Adobe Illustrator 15.0.0, SVG Export Plug-In . SVG Version: 6.00 Build 0)  -->
<!DOCTYPE svg PUBLIC "-//W3C//DTD SVG 1.1//EN" "http://www.w3.org/Graphics/SVG/1.1/DTD/svg11.dtd">
<svg version="1.1" id="Layer_1" xmlns="http://www.w3.org/2000/svg" xmlns:xlink="http://www.w3.org/1999/xlink" x="0px" y="0px"
	 width="1200px" height="1200px" viewBox="0 0 1200 1200" enable-background="new 0 0 1200 1200" xml:space="preserve">
<path fill="#FFFFFF" d="M106.4,836.8c0,9.2,3.2,16.8,10,22.8c6.8,6.4,15.2,9.2,24.8,9.2H885.6c9.601,0,17.601-3.2,24-9.2
	c6.801-6.399,10-14,10-22.8c0-9.6-3.199-18-9.6-24.399c-6.4-6.801-14.8-10-24.4-10H141.2c-9.6,0-17.6,3.199-24.4,10
	C110,819.2,106.4,827.6,106.4,836.8z M210.8,712.4c0,9.6,3.6,17.199,10.4,23.6c5.6,7.2,13.2,10.8,23.6,10.8h744.4
	c9.2,0,16.8-3.2,23.2-10c6.399-6.8,9.199-14.8,9.199-24.399c0-9.2-3.199-17.2-9.199-23.2s-14-9.2-23.2-9.2H244.8
	c-9.6,0-17.6,3.2-24,9.2C214,695.6,210.8,703.2,210.8,712.4z M216.8,615.6v-2c-1.6,6,0,8.801,4.8,8.801h57.6c2.4,0,4.8-2,7.6-6
	C296.4,595.6,310.4,578.8,329.2,565.6c18.8-13.199,39.6-20.8,62-22.399l21.2-3.2c4.8,0,7.6-2.4,7.6-7.2l2.4-20
	c4.399-43.2,22.399-78.8,54.399-108c32-28.8,70-43.2,113.601-43.2c42.8,0,80.8,14.4,112.8,42.8c32,28.399,50.8,64,55.2,106.8
	l2.8,22.8c0,4.8,2.8,7.2,8.399,7.2h63.2c25.601,0,49.2,6.8,70,20.8c20.8,13.6,36.8,32,46.8,54.4c2.801,4,5.601,6,8.801,6h56.8
	c4.8,0,6.8-2.801,6-8.801c-8.8-22.399-14.8-36.399-18.4-42.399c28.8-26,49.2-60.4,60-102.8l6.8-26.4c1.2-2.4,0.801-4.8-0.399-6.4
	c-1.2-1.6-2.8-2.8-4.8-2.8L1039.6,424c-35.6-10.4-62.8-31.2-81.6-63.2s-23.6-66-14.8-102.4l5.199-23.2c2-3.6,0.4-6.8-5.199-9.2
	l-33.601-9.2c-43.6-10.8-86.8-7.2-128.8,10.4c-42,17.6-74.8,46-98.8,84.8c-31.601-12.4-62.4-18.4-91.6-18.4
	C534.8,293.6,485.6,311.2,442,346c-43.6,34.8-71.2,79.6-84,134c-33.6,8-63.2,24-88.8,48.4C243.6,552.8,226.8,582,216.8,615.6z
	 M280,958.8c0,9.601,3.6,17.2,10.4,23.601c6.8,7.199,14.8,10.8,23.6,10.8h746c9.2,0,17.2-3.2,23.6-10c6.4-6.8,9.601-14.8,9.601-24.4
	c0-9.2-3.2-16.8-9.601-23.2c-6.399-6.399-14.399-9.199-23.6-9.199H314.4c-9.601,0-17.601,3.199-24,9.199
	C283.6,942,280,949.6,280,958.8z M740.4,348c14-22.8,32.8-40.8,56.399-53.2c23.601-12.4,48.4-17.6,74.8-15.2
	c-2.8,41.6,6.801,80.8,28,117.2c21.601,36.4,51.2,63.2,88.801,80.8c-6,14-16,28.4-30,42.801C921.6,490,879.6,475.2,832.8,475.2H820
	C807.2,422.8,780.8,380.4,740.4,348z"/>
</svg>
